<svg width="84" height="84" viewBox="0 0 84 84" fill="none" xmlns="http://www.w3.org/2000/svg">
<circle cx="42" cy="42" r="42" fill="white"/>
<mask id="mask0_159_2" style="mask-type:alpha" maskUnits="userSpaceOnUse" x="21" y="21" width="43" height="42">
<rect x="21.0215" y="21" width="42.0169" height="42" fill="#D9D9D9"/>
</mask>
<g mask="url(#mask0_159_2)">
<path d="M27.6578 40.8845C27.1909 40.8845 26.7979 40.725 26.4788 40.406C26.1596 40.0869 26 39.6941 26 39.2274V27.6571C26 27.1905 26.1596 26.7976 26.4788 26.4786C26.7979 26.1595 27.1909 26 27.6578 26H39.2328C39.6996 26 40.0926 26.1595 40.4118 26.4786C40.731 26.7976 40.8905 27.1905 40.8905 27.6571V39.2274C40.8905 39.6941 40.731 40.0869 40.4118 40.406C40.0926 40.725 39.6996 40.8845 39.2328 40.8845H27.6578ZM45.3266 40.8845C44.8598 40.8845 44.4667 40.725 44.1476 40.406C43.8284 40.0869 43.6688 39.6941 43.6688 39.2274V27.6571C43.6688 27.1905 43.8284 26.7976 44.1476 26.4786C44.4667 26.1595 44.8598 26 45.3266 26H56.9016C57.3684 26 57.7614 26.1595 58.0806 26.4786C58.3998 26.7976 58.5594 27.1905 58.5594 27.6571V39.2274C58.5594 39.6941 58.3998 40.0869 58.0806 40.406C57.7614 40.725 57.3684 40.8845 56.9016 40.8845H45.3266ZM27.6578 58.5462C27.1909 58.5462 26.7979 58.3867 26.4788 58.0677C26.1596 57.7486 26 57.3558 26 56.8891V45.3188C26 44.8522 26.1596 44.4593 26.4788 44.1402C26.7979 43.8212 27.1909 43.6617 27.6578 43.6617H39.2328C39.6996 43.6617 40.0926 43.8212 40.4118 44.1402C40.731 44.4593 40.8905 44.8522 40.8905 45.3188V56.8891C40.8905 57.3558 40.731 57.7486 40.4118 58.0677C40.0926 58.3867 39.6996 58.5462 39.2328 58.5462H27.6578ZM51.1125 58.5462C50.6395 58.5462 50.2447 58.3867 49.9279 58.0677C49.6112 57.7486 49.4528 57.3558 49.4528 56.8891V52.7645H45.2828C44.8306 52.7645 44.4485 52.6034 44.1366 52.2811C43.8248 51.9587 43.6688 51.5635 43.6688 51.0954C43.6688 50.6272 43.8284 50.2349 44.1476 49.9183C44.4667 49.6017 44.8598 49.4433 45.3266 49.4433H49.4528V45.2751C49.4528 44.823 49.614 44.4411 49.9365 44.1293C50.259 43.8176 50.6544 43.6617 51.1227 43.6617C51.591 43.6617 51.9835 43.8212 52.3002 44.1402C52.617 44.4593 52.7753 44.8522 52.7753 45.3188V49.4433H56.9453C57.3976 49.4433 57.7797 49.6045 58.0915 49.9269C58.4034 50.2492 58.5594 50.6421 58.5594 51.1056C58.5594 51.5784 58.3998 51.973 58.0806 52.2896C57.7614 52.6062 57.3684 52.7645 56.9016 52.7645H52.7753V56.9329C52.7753 57.385 52.6141 57.7669 52.2916 58.0786C51.9692 58.3904 51.5761 58.5462 51.1125 58.5462ZM46.9914 29.3142V37.5633H55.2438V29.3142H46.9914ZM29.3225 29.3142V37.5633H37.575V29.3142H29.3225ZM29.3225 46.9759V55.225H37.575V46.9759H29.3225Z" fill="black"/>
</g>
</svg>
