<svg width="84" height="84" viewBox="0 0 84 84" fill="none" xmlns="http://www.w3.org/2000/svg">
<circle cx="42" cy="42" r="42" fill="white"/>
<path d="M38.7844 36.4088C38.8948 36.2984 39.0259 36.2108 39.1702 36.1511C39.3144 36.0913 39.469 36.0605 39.6252 36.0605C39.7813 36.0605 39.9359 36.0913 40.0802 36.1511C40.2244 36.2108 40.3555 36.2984 40.4659 36.4088C40.5763 36.5192 40.6639 36.6503 40.7237 36.7945C40.7834 36.9388 40.8142 37.0934 40.8142 37.2495C40.8142 37.4057 40.7834 37.5603 40.7237 37.7046C40.6639 37.8488 40.5763 37.9799 40.4659 38.0903L36.5543 41.9995L40.4659 45.9088C40.6889 46.1318 40.8142 46.4342 40.8142 46.7495C40.8142 47.0649 40.6889 47.3673 40.4659 47.5903C40.2429 47.8133 39.9405 47.9385 39.6252 47.9385C39.3098 47.9385 39.0074 47.8133 38.7844 47.5903L34.0344 42.8403C33.9238 42.73 33.8361 42.5989 33.7762 42.4547C33.7164 42.3104 33.6855 42.1557 33.6855 41.9995C33.6855 41.8434 33.7164 41.6887 33.7762 41.5444C33.8361 41.4001 33.9238 41.2691 34.0344 41.1588L38.7844 36.4088V36.4088ZM45.2159 36.4088C45.1055 36.2984 44.9744 36.2108 44.8302 36.1511C44.6859 36.0913 44.5313 36.0605 44.3752 36.0605C44.219 36.0605 44.0644 36.0913 43.9202 36.1511C43.7759 36.2108 43.6448 36.2984 43.5344 36.4088C43.424 36.5192 43.3364 36.6503 43.2767 36.7945C43.2169 36.9388 43.1862 37.0934 43.1862 37.2495C43.1862 37.4057 43.2169 37.5603 43.2767 37.7046C43.3364 37.8488 43.424 37.9799 43.5344 38.0903L47.446 41.9995L43.5344 45.9088C43.3114 46.1318 43.1862 46.4342 43.1862 46.7495C43.1862 47.0649 43.3114 47.3673 43.5344 47.5903C43.7574 47.8133 44.0598 47.9385 44.3752 47.9385C44.6905 47.9385 44.9929 47.8133 45.2159 47.5903L49.9659 42.8403C50.0765 42.73 50.1642 42.5989 50.2241 42.4547C50.284 42.3104 50.3148 42.1557 50.3148 41.9995C50.3148 41.8434 50.284 41.6887 50.2241 41.5444C50.1642 41.4001 50.0765 41.2691 49.9659 41.1588L45.2159 36.4088V36.4088Z" fill="black"/>
<path d="M27.75 27.75C27.75 26.4902 28.2504 25.282 29.1412 24.3912C30.032 23.5004 31.2402 23 32.5 23H51.5C52.7598 23 53.968 23.5004 54.8588 24.3912C55.7496 25.282 56.25 26.4902 56.25 27.75V56.25C56.25 57.5098 55.7496 58.718 54.8588 59.6088C53.968 60.4996 52.7598 61 51.5 61H32.5C31.2402 61 30.032 60.4996 29.1412 59.6088C28.2504 58.718 27.75 57.5098 27.75 56.25V27.75ZM51.5 25.375H32.5C31.8701 25.375 31.266 25.6252 30.8206 26.0706C30.3752 26.516 30.125 27.1201 30.125 27.75V56.25C30.125 56.8799 30.3752 57.484 30.8206 57.9294C31.266 58.3748 31.8701 58.625 32.5 58.625H51.5C52.1299 58.625 52.734 58.3748 53.1794 57.9294C53.6248 57.484 53.875 56.8799 53.875 56.25V27.75C53.875 27.1201 53.6248 26.516 53.1794 26.0706C52.734 25.6252 52.1299 25.375 51.5 25.375Z" fill="black"/>
</svg>
