<svg width="84" height="84" viewBox="0 0 84 84" fill="none" xmlns="http://www.w3.org/2000/svg">
<circle cx="42" cy="42" r="42" fill="white"/>
<path d="M49.5 46.1031L55.9609 49.0023C57.3359 49.6273 57.3359 50.6508 55.9609 51.2758L44.3984 56.5492C43.0789 57.15 40.907 57.15 39.5875 56.5492L28.025 51.2758C26.65 50.6508 26.65 49.6273 28.025 49.0023L34.2703 45.9969M28.0313 32.7539L39.7 27.4336C40.9648 26.8555 43.0352 26.8555 44.3 27.4336L55.9609 32.7539C57.3359 33.3789 57.3359 34.4016 55.9609 35.0266L44.3984 40.3C43.0789 40.9016 40.907 40.9016 39.5875 40.3L28.025 35.0266C26.6563 34.4016 26.6563 33.3781 28.0313 32.7539Z" stroke="black" stroke-width="2" stroke-linecap="round" stroke-linejoin="round"/>
<path d="M49.5 37.9746L55.9687 40.8777C57.3437 41.5027 57.3437 42.5262 55.9687 43.1512L44.4063 48.4238C43.0867 49.0254 40.9148 49.0254 39.5953 48.4238L28.0328 43.1512C26.65 42.5262 26.65 41.5027 28.025 40.8777L34.5 37.9746" stroke="black" stroke-width="2" stroke-linecap="round" stroke-linejoin="round"/>
</svg>
