<svg width="126" height="22" viewBox="0 0 126 22" fill="none" xmlns="http://www.w3.org/2000/svg">
<path d="M10.9997 1.83331L13.8322 7.57165L20.1663 8.49748L15.583 12.9616L16.6647 19.2683L10.9997 16.2891L5.33467 19.2683L6.41634 12.9616L1.83301 8.49748L8.16717 7.57165L10.9997 1.83331Z" fill="#FFA033" stroke="#FFA033" stroke-linecap="round" stroke-linejoin="round"/>
<path d="M36.9997 1.83331L39.8322 7.57165L46.1663 8.49748L41.583 12.9616L42.6647 19.2683L36.9997 16.2891L31.3347 19.2683L32.4163 12.9616L27.833 8.49748L34.1672 7.57165L36.9997 1.83331Z" fill="#FFA033" stroke="#FFA033" stroke-linecap="round" stroke-linejoin="round"/>
<path d="M62.9997 1.83331L65.8322 7.57165L72.1663 8.49748L67.583 12.9616L68.6647 19.2683L62.9997 16.2891L57.3347 19.2683L58.4163 12.9616L53.833 8.49748L60.1672 7.57165L62.9997 1.83331Z" fill="#FFA033" stroke="#FFA033" stroke-linecap="round" stroke-linejoin="round"/>
<path d="M88.9997 1.83301L91.8322 7.57134L98.1663 8.49717L93.583 12.9613L94.6647 19.268L88.9997 16.2888L83.3347 19.268L84.4163 12.9613L79.833 8.49717L86.1672 7.57134L88.9997 1.83301Z" fill="#FFA033" stroke="#FFA033" stroke-linecap="round" stroke-linejoin="round"/>
<path d="M115 1.83301L117.832 7.57134L124.166 8.49717L119.583 12.9613L120.665 19.268L115 16.2888L109.335 19.268L110.416 12.9613L105.833 8.49717L112.167 7.57134L115 1.83301Z" fill="#FFA033" stroke="#FFA033" stroke-linecap="round" stroke-linejoin="round"/>
</svg>
